<svg width="353" height="535" viewBox="0 0 500 535" fill="none" xmlns="http://www.w3.org/2000/svg">
<path d="M327.514 476.574H4.64203V13.3579H327.514C339.095 13.3579 348.57 22.4819 348.57 34.0623V455.168C348.57 466.865 339.095 476.574 327.514 476.574Z" fill="#4C5B60"/>
<mask id="mask0_250_2177" style="mask-type:alpha" maskUnits="userSpaceOnUse" x="4" y="15" width="345" height="464">
<path d="M327.514 478.914H4.64209V15.6975H327.514C339.095 15.6975 348.57 24.8215 348.57 36.4019V457.508C348.57 469.205 339.095 478.914 327.514 478.914Z" fill="white"/>
</mask>
<g mask="url(#mask0_250_2177)">
<path opacity="0.11" d="M-25.3058 832.877C-25.7737 832.877 -26.2417 832.76 -26.5926 832.409C-27.2945 831.707 -27.2945 830.654 -26.5926 829.952L376.295 427.212C376.997 426.51 378.05 426.51 378.751 427.212C379.453 427.914 379.453 428.966 378.751 429.668L-24.019 832.409C-24.3699 832.76 -24.8379 832.877 -25.3058 832.877Z" fill="black"/>
<path opacity="0.11" d="M-25.3058 816.501C-25.7737 816.501 -26.2417 816.384 -26.5926 816.033C-27.2945 815.331 -27.2945 814.278 -26.5926 813.576L376.295 410.835C376.997 410.134 378.05 410.134 378.751 410.835C379.453 411.537 379.453 412.59 378.751 413.292L-24.019 816.033C-24.3699 816.384 -24.8379 816.501 -25.3058 816.501Z" fill="black"/>
<path opacity="0.11" d="M-25.3058 800.124C-25.7737 800.124 -26.2417 800.007 -26.5926 799.656C-27.2945 798.954 -27.2945 797.902 -26.5926 797.2L376.295 394.459C376.997 393.757 378.05 393.757 378.751 394.459C379.453 395.161 379.453 396.214 378.751 396.915L-24.019 799.656C-24.3699 800.007 -24.8379 800.124 -25.3058 800.124Z" fill="black"/>
<path opacity="0.11" d="M-25.3058 783.748C-25.7737 783.748 -26.2417 783.631 -26.5926 783.28C-27.2945 782.578 -27.2945 781.526 -26.5926 780.824L376.295 378.083C376.997 377.381 378.05 377.381 378.751 378.083C379.453 378.785 379.453 379.838 378.751 380.54L-24.019 783.28C-24.3699 783.631 -24.8379 783.748 -25.3058 783.748Z" fill="black"/>
<path opacity="0.11" d="M-25.3058 767.372C-25.7737 767.372 -26.2417 767.255 -26.5926 766.904C-27.2945 766.202 -27.2945 765.149 -26.5926 764.447L376.295 361.707C376.997 361.005 378.05 361.005 378.751 361.707C379.453 362.408 379.453 363.461 378.751 364.163L-24.019 766.904C-24.3699 767.255 -24.8379 767.372 -25.3058 767.372Z" fill="black"/>
<path opacity="0.11" d="M-25.3058 750.995C-25.7737 750.995 -26.2417 750.878 -26.5926 750.527C-27.2945 749.826 -27.2945 748.773 -26.5926 748.071L376.295 345.33C376.997 344.628 378.05 344.628 378.751 345.33C379.453 346.032 379.453 347.085 378.751 347.787L-24.019 750.527C-24.3699 750.878 -24.8379 750.995 -25.3058 750.995Z" fill="black"/>
<path opacity="0.11" d="M-25.3058 734.619C-25.7737 734.619 -26.2417 734.502 -26.5926 734.151C-27.2945 733.449 -27.2945 732.396 -26.5926 731.694L376.295 328.954C376.997 328.252 378.05 328.252 378.751 328.954C379.453 329.655 379.453 330.708 378.751 331.41L-24.019 734.151C-24.3699 734.502 -24.8379 734.619 -25.3058 734.619Z" fill="black"/>
<path opacity="0.11" d="M-25.3058 718.243C-25.7737 718.243 -26.2417 718.126 -26.5926 717.775C-27.2945 717.073 -27.2945 716.02 -26.5926 715.318L376.295 312.577C376.997 311.876 378.05 311.876 378.751 312.577C379.453 313.279 379.453 314.332 378.751 315.034L-24.019 717.775C-24.3699 718.126 -24.8379 718.243 -25.3058 718.243Z" fill="black"/>
<path opacity="0.11" d="M-25.3058 701.866C-25.7737 701.866 -26.2417 701.749 -26.5926 701.398C-27.2945 700.697 -27.2945 699.644 -26.5926 698.942L376.295 296.201C376.997 295.499 378.05 295.499 378.751 296.201C379.453 296.903 379.453 297.956 378.751 298.658L-24.019 701.398C-24.3699 701.749 -24.8379 701.866 -25.3058 701.866Z" fill="black"/>
<path opacity="0.11" d="M-25.3058 685.49C-25.7737 685.49 -26.2417 685.373 -26.5926 685.022C-27.2945 684.32 -27.2945 683.267 -26.5926 682.565L376.295 279.825C376.997 279.123 378.05 279.123 378.751 279.825C379.453 280.527 379.453 281.579 378.751 282.281L-24.019 685.022C-24.3699 685.373 -24.8379 685.49 -25.3058 685.49Z" fill="black"/>
<path opacity="0.11" d="M-25.3058 669.114C-25.7737 669.114 -26.2417 668.997 -26.5926 668.646C-27.2945 667.944 -27.2945 666.891 -26.5926 666.189L376.295 263.449C376.997 262.747 378.05 262.747 378.751 263.449C379.453 264.15 379.453 265.203 378.751 265.905L-24.019 668.646C-24.3699 668.997 -24.8379 669.114 -25.3058 669.114Z" fill="black"/>
<path opacity="0.11" d="M-25.3058 652.737C-25.7737 652.737 -26.2417 652.62 -26.5926 652.269C-27.2945 651.567 -27.2945 650.515 -26.5926 649.813L376.295 247.072C376.997 246.37 378.05 246.37 378.751 247.072C379.453 247.774 379.453 248.827 378.751 249.528L-24.019 652.269C-24.3699 652.62 -24.8379 652.737 -25.3058 652.737Z" fill="black"/>
<path opacity="0.11" d="M-25.3058 636.361C-25.7737 636.361 -26.2417 636.244 -26.5926 635.893C-27.2945 635.191 -27.2945 634.138 -26.5926 633.437L376.295 230.696C376.997 229.994 378.05 229.994 378.751 230.696C379.453 231.398 379.453 232.45 378.751 233.152L-24.019 635.893C-24.3699 636.244 -24.8379 636.361 -25.3058 636.361Z" fill="black"/>
<path opacity="0.11" d="M-25.3058 619.985C-25.7737 619.985 -26.2417 619.868 -26.5926 619.517C-27.2945 618.815 -27.2945 617.762 -26.5926 617.06L376.295 214.32C376.997 213.618 378.05 213.618 378.751 214.32C379.453 215.021 379.453 216.074 378.751 216.776L-24.019 619.517C-24.3699 619.868 -24.8379 619.985 -25.3058 619.985Z" fill="black"/>
<path opacity="0.11" d="M-25.3058 603.608C-25.7737 603.608 -26.2417 603.491 -26.5926 603.14C-27.2945 602.439 -27.2945 601.386 -26.5926 600.684L376.295 197.943C376.997 197.241 378.05 197.241 378.751 197.943C379.453 198.645 379.453 199.698 378.751 200.4L-24.019 603.14C-24.3699 603.491 -24.8379 603.608 -25.3058 603.608Z" fill="black"/>
<path opacity="0.11" d="M-25.3058 587.232C-25.7737 587.232 -26.2417 587.115 -26.5926 586.764C-27.2945 586.062 -27.2945 585.01 -26.5926 584.308L376.295 181.567C376.997 180.865 378.05 180.865 378.751 181.567C379.453 182.269 379.453 183.322 378.751 184.023L-24.019 586.764C-24.3699 587.115 -24.8379 587.232 -25.3058 587.232Z" fill="black"/>
<path opacity="0.11" d="M-25.3058 570.856C-25.7737 570.856 -26.2417 570.739 -26.5926 570.388C-27.2945 569.686 -27.2945 568.633 -26.5926 567.931L376.295 165.191C376.997 164.489 378.05 164.489 378.751 165.191C379.453 165.893 379.453 166.945 378.751 167.647L-24.019 570.388C-24.3699 570.739 -24.8379 570.856 -25.3058 570.856Z" fill="black"/>
<path opacity="0.11" d="M-25.3058 554.479C-25.7737 554.479 -26.2417 554.362 -26.5926 554.011C-27.2945 553.31 -27.2945 552.257 -26.5926 551.555L376.295 148.814C376.997 148.112 378.05 148.112 378.751 148.814C379.453 149.516 379.453 150.569 378.751 151.271L-24.019 554.011C-24.3699 554.362 -24.8379 554.479 -25.3058 554.479Z" fill="black"/>
<path opacity="0.11" d="M-25.3058 538.103C-25.7737 538.103 -26.2417 537.986 -26.5926 537.635C-27.2945 536.933 -27.2945 535.881 -26.5926 535.179L376.295 132.438C376.997 131.736 378.05 131.736 378.751 132.438C379.453 133.14 379.453 134.193 378.751 134.894L-24.019 537.635C-24.3699 537.986 -24.8379 538.103 -25.3058 538.103Z" fill="black"/>
<path opacity="0.11" d="M-25.3058 521.726C-25.7737 521.726 -26.2417 521.609 -26.5926 521.259C-27.2945 520.557 -27.2945 519.504 -26.5926 518.802L376.295 116.061C376.997 115.359 378.05 115.359 378.751 116.061C379.453 116.763 379.453 117.816 378.751 118.518L-24.019 521.259C-24.3699 521.609 -24.8379 521.726 -25.3058 521.726Z" fill="black"/>
<path opacity="0.11" d="M-25.3058 505.35C-25.7737 505.35 -26.2417 505.233 -26.5926 504.882C-27.2945 504.18 -27.2945 503.128 -26.5926 502.426L376.295 99.6851C376.997 98.9832 378.05 98.9832 378.751 99.6851C379.453 100.387 379.453 101.44 378.751 102.142L-24.019 504.882C-24.3699 505.233 -24.8379 505.35 -25.3058 505.35Z" fill="black"/>
<path opacity="0.11" d="M-25.3058 488.974C-25.7737 488.974 -26.2417 488.857 -26.5926 488.506C-27.2945 487.804 -27.2945 486.751 -26.5926 486.049L376.295 83.3086C376.997 82.6068 378.05 82.6068 378.751 83.3086C379.453 84.0105 379.453 85.0632 378.751 85.7651L-24.019 488.506C-24.3699 488.857 -24.8379 488.974 -25.3058 488.974Z" fill="black"/>
<path opacity="0.11" d="M-25.3058 472.598C-25.7737 472.598 -26.2417 472.481 -26.5926 472.13C-27.2945 471.428 -27.2945 470.375 -26.5926 469.673L376.295 66.9326C376.997 66.2308 378.05 66.2308 378.751 66.9326C379.453 67.6345 379.453 68.6872 378.751 69.3891L-24.019 472.13C-24.3699 472.481 -24.8379 472.598 -25.3058 472.598Z" fill="black"/>
<path opacity="0.11" d="M-25.3058 456.221C-25.7737 456.221 -26.2417 456.104 -26.5926 455.753C-27.2945 455.052 -27.2945 453.999 -26.5926 453.297L376.295 50.5562C376.997 49.8543 378.05 49.8543 378.751 50.5562C379.453 51.258 379.453 52.3108 378.751 53.0126L-24.019 455.753C-24.3699 456.104 -24.8379 456.221 -25.3058 456.221Z" fill="black"/>
<path opacity="0.11" d="M-25.3058 439.845C-25.7737 439.845 -26.2417 439.728 -26.5926 439.377C-27.2945 438.675 -27.2945 437.622 -26.5926 436.92L376.295 34.1797C376.997 33.4779 378.05 33.4779 378.751 34.1797C379.453 34.8815 379.453 35.9343 378.751 36.6362L-24.019 439.377C-24.3699 439.728 -24.8379 439.845 -25.3058 439.845Z" fill="black"/>
<path opacity="0.11" d="M-25.3058 423.468C-25.7737 423.468 -26.2417 423.351 -26.5926 423C-27.2945 422.299 -27.2945 421.246 -26.5926 420.544L376.295 17.8032C376.997 17.1014 378.05 17.1014 378.751 17.8032C379.453 18.5051 379.453 19.5579 378.751 20.2597L-24.019 423C-24.3699 423.351 -24.8379 423.468 -25.3058 423.468Z" fill="black"/>
<path opacity="0.11" d="M-25.3058 407.092C-25.7737 407.092 -26.2417 406.975 -26.5926 406.624C-27.2945 405.922 -27.2945 404.87 -26.5926 404.168L376.295 1.42702C376.997 0.725174 378.05 0.725174 378.751 1.42702C379.453 2.12886 379.453 3.18163 378.751 3.88347L-24.019 406.624C-24.3699 406.975 -24.8379 407.092 -25.3058 407.092Z" fill="black"/>
<path opacity="0.11" d="M-25.3058 390.716C-25.7737 390.716 -26.2417 390.599 -26.5926 390.248C-27.2945 389.546 -27.2945 388.494 -26.5926 387.792L376.295 -14.949C376.997 -15.6508 378.05 -15.6508 378.751 -14.949C379.453 -14.2471 379.453 -13.1943 378.751 -12.4925L-24.019 390.248C-24.3699 390.599 -24.8379 390.716 -25.3058 390.716Z" fill="black"/>
<path opacity="0.11" d="M-25.3058 374.339C-25.7737 374.339 -26.2417 374.222 -26.5926 373.872C-27.2945 373.17 -27.2945 372.117 -26.5926 371.415L376.295 -31.3257C376.997 -32.0275 378.05 -32.0275 378.751 -31.3257C379.453 -30.6238 379.453 -29.5711 378.751 -28.8692L-24.019 373.872C-24.3699 374.222 -24.8379 374.339 -25.3058 374.339Z" fill="black"/>
<path opacity="0.11" d="M-25.3058 357.963C-25.7737 357.963 -26.2417 357.846 -26.5926 357.495C-27.2945 356.793 -27.2945 355.741 -26.5926 355.039L376.295 -47.7019C376.997 -48.4037 378.05 -48.4037 378.751 -47.7019C379.453 -47 379.453 -45.9473 378.751 -45.2455L-24.019 357.495C-24.3699 357.846 -24.8379 357.963 -25.3058 357.963Z" fill="black"/>
<path opacity="0.11" d="M-25.3058 341.587C-25.7737 341.587 -26.2417 341.47 -26.5926 341.119C-27.2945 340.417 -27.2945 339.364 -26.5926 338.663L376.295 -64.0781C376.997 -64.78 378.05 -64.78 378.751 -64.0781C379.453 -63.3763 379.453 -62.3235 378.751 -61.6217L-24.019 341.119C-24.3699 341.47 -24.8379 341.587 -25.3058 341.587Z" fill="black"/>
<path opacity="0.11" d="M-25.3058 325.21C-25.7737 325.21 -26.2417 325.094 -26.5926 324.743C-27.2945 324.041 -27.2945 322.988 -26.5926 322.286L376.295 -80.4546C376.997 -81.1564 378.05 -81.1564 378.751 -80.4546C379.453 -79.7527 379.453 -78.7 378.751 -77.9981L-24.019 324.743C-24.3699 325.094 -24.8379 325.21 -25.3058 325.21Z" fill="black"/>
<path opacity="0.11" d="M-25.3058 308.834C-25.7737 308.834 -26.2417 308.717 -26.5926 308.366C-27.2945 307.665 -27.2945 306.612 -26.5926 305.91L376.295 -96.8308C376.997 -97.5326 378.05 -97.5326 378.751 -96.8308C379.453 -96.129 379.453 -95.0762 378.751 -94.3744L-24.019 308.366C-24.3699 308.717 -24.8379 308.834 -25.3058 308.834Z" fill="black"/>
<path opacity="0.11" d="M-25.3058 292.458C-25.7737 292.458 -26.2417 292.341 -26.5926 291.99C-27.2945 291.288 -27.2945 290.236 -26.5926 289.534L376.295 -113.207C376.997 -113.909 378.05 -113.909 378.751 -113.207C379.453 -112.505 379.453 -111.452 378.751 -110.751L-24.019 291.99C-24.3699 292.341 -24.8379 292.458 -25.3058 292.458Z" fill="black"/>
<path opacity="0.11" d="M-25.3058 276.081C-25.7737 276.081 -26.2417 275.964 -26.5926 275.613C-27.2945 274.912 -27.2945 273.859 -26.5926 273.157L376.295 -129.584C376.997 -130.286 378.05 -130.286 378.751 -129.584C379.453 -128.882 379.453 -127.829 378.751 -127.127L-24.019 275.613C-24.3699 275.964 -24.8379 276.081 -25.3058 276.081Z" fill="black"/>
<path opacity="0.11" d="M-25.3058 259.705C-25.7737 259.705 -26.2417 259.588 -26.5926 259.238C-27.2945 258.536 -27.2945 257.483 -26.5926 256.781L376.295 -145.96C376.997 -146.662 378.05 -146.662 378.751 -145.96C379.453 -145.258 379.453 -144.205 378.751 -143.503L-24.019 259.238C-24.3699 259.588 -24.8379 259.705 -25.3058 259.705Z" fill="black"/>
<path opacity="0.11" d="M-25.3058 243.329C-25.7737 243.329 -26.2417 243.212 -26.5926 242.861C-27.2945 242.159 -27.2945 241.107 -26.5926 240.405L376.295 -162.336C376.997 -163.038 378.05 -163.038 378.751 -162.336C379.453 -161.634 379.453 -160.581 378.751 -159.879L-24.019 242.861C-24.3699 243.212 -24.8379 243.329 -25.3058 243.329Z" fill="black"/>
<path opacity="0.11" d="M-25.3058 226.952C-25.7737 226.952 -26.2417 226.835 -26.5926 226.484C-27.2945 225.782 -27.2945 224.73 -26.5926 224.028L376.295 -178.83C376.997 -179.532 378.05 -179.532 378.751 -178.83C379.453 -178.128 379.453 -177.075 378.751 -176.374L-24.019 226.484C-24.3699 226.835 -24.8379 226.952 -25.3058 226.952Z" fill="black"/>
<path opacity="0.11" d="M-25.3058 210.576C-25.7737 210.576 -26.2417 210.459 -26.5926 210.108C-27.2945 209.406 -27.2945 208.353 -26.5926 207.651L376.295 -195.207C376.997 -195.908 378.05 -195.908 378.751 -195.207C379.453 -194.505 379.453 -193.452 378.751 -192.75L-24.019 210.108C-24.3699 210.459 -24.8379 210.576 -25.3058 210.576Z" fill="black"/>
<path opacity="0.11" d="M-25.3058 194.2C-25.7737 194.2 -26.2417 194.083 -26.5926 193.732C-27.2945 193.03 -27.2945 191.977 -26.5926 191.276L376.295 -211.699C376.997 -212.401 378.05 -212.401 378.751 -211.699C379.453 -210.997 379.453 -209.945 378.751 -209.243L-24.019 193.732C-24.3699 194.083 -24.8379 194.2 -25.3058 194.2Z" fill="black"/>
<path opacity="0.11" d="M-25.3058 177.823C-25.7737 177.823 -26.2417 177.706 -26.5926 177.356C-27.2945 176.654 -27.2945 175.601 -26.5926 174.899L376.295 -228.076C376.997 -228.778 378.05 -228.778 378.751 -228.076C379.453 -227.374 379.453 -226.321 378.751 -225.619L-24.019 177.356C-24.3699 177.706 -24.8379 177.823 -25.3058 177.823Z" fill="black"/>
<path opacity="0.11" d="M-25.3058 161.447C-25.7737 161.447 -26.2417 161.33 -26.5926 160.979C-27.2945 160.277 -27.2945 159.224 -26.5926 158.523L376.295 -244.452C376.997 -245.154 378.05 -245.154 378.751 -244.452C379.453 -243.75 379.453 -242.698 378.751 -241.996L-24.019 160.979C-24.3699 161.33 -24.8379 161.447 -25.3058 161.447Z" fill="black"/>
<path opacity="0.11" d="M-25.3058 145.07C-25.7737 145.07 -26.2417 144.954 -26.5926 144.603C-27.2945 143.901 -27.2945 142.848 -26.5926 142.146L376.295 -260.829C376.997 -261.53 378.05 -261.53 378.751 -260.829C379.453 -260.127 379.453 -259.074 378.751 -258.372L-24.019 144.603C-24.3699 144.954 -24.8379 145.07 -25.3058 145.07Z" fill="black"/>
<path opacity="0.11" d="M-25.3058 128.694C-25.7737 128.694 -26.2417 128.577 -26.5926 128.226C-27.2945 127.525 -27.2945 126.472 -26.5926 125.77L376.295 -277.205C376.997 -277.907 378.05 -277.907 378.751 -277.205C379.453 -276.503 379.453 -275.45 378.751 -274.748L-24.019 128.226C-24.3699 128.577 -24.8379 128.694 -25.3058 128.694Z" fill="black"/>
<path opacity="0.11" d="M-25.3058 112.318C-25.7737 112.318 -26.2417 112.201 -26.5926 111.85C-27.2945 111.148 -27.2945 110.096 -26.5926 109.394L376.295 -293.581C376.997 -294.283 378.05 -294.283 378.751 -293.581C379.453 -292.879 379.453 -291.826 378.751 -291.125L-24.019 111.85C-24.3699 112.201 -24.8379 112.318 -25.3058 112.318Z" fill="black"/>
<path opacity="0.11" d="M-25.3058 95.9418C-25.7738 95.9418 -26.2417 95.8249 -26.5927 95.4739C-27.2946 94.7721 -27.2946 93.7193 -26.5927 93.0175L376.295 -309.957C376.997 -310.659 378.05 -310.659 378.751 -309.957C379.453 -309.255 379.453 -308.203 378.751 -307.501L-24.019 95.4739C-24.37 95.8249 -24.8379 95.9418 -25.3058 95.9418Z" fill="black"/>
<path opacity="0.11" d="M-25.3058 79.565C-25.7737 79.565 -26.2417 79.4481 -26.5926 79.0972C-27.2945 78.3953 -27.2945 77.3425 -26.5926 76.6407L339.328 -289.487C340.03 -290.189 341.083 -290.189 341.785 -289.487C342.487 -288.785 342.487 -287.733 341.785 -287.031L-24.019 79.0972C-24.3699 79.4481 -24.8379 79.565 -25.3058 79.565Z" fill="black"/>
<path opacity="0.11" d="M-25.3058 63.189C-25.7737 63.189 -26.2417 63.072 -26.5926 62.7211C-27.2945 62.0192 -27.2945 60.9665 -26.5926 60.2646L316.634 -283.053C317.336 -283.755 318.389 -283.755 319.09 -283.053C319.792 -282.352 319.792 -281.299 319.09 -280.597L-24.019 62.7211C-24.3699 63.072 -24.8379 63.189 -25.3058 63.189Z" fill="black"/>
</g>
<path d="M300.608 13.3579H272.532V476.574H300.608V13.3579Z" fill="#3E4B4F"/>
<path opacity="0.3" d="M24.529 13.3579H4.64203V476.574H24.529V13.3579Z" fill="#CCDDE5"/>
<path d="M327.514 476.574H4.64203V13.3579H327.514C339.095 13.3579 348.57 22.4819 348.57 34.0623V455.168C348.57 466.865 339.095 476.574 327.514 476.574Z" stroke="black" stroke-width="8" stroke-miterlimit="10" stroke-linecap="round" stroke-linejoin="round"/>
<path d="M44.416 13.3579H4.64203V476.574H44.416V13.3579Z" stroke="black" stroke-width="8" stroke-miterlimit="10" stroke-linecap="round" stroke-linejoin="round"/>
<path d="M348.57 146.708H4.64203V277.719H348.57V146.708Z" fill="#15AF4F"/>
<path opacity="0.6" d="M44.4161 146.708V277.719" stroke="black" stroke-width="8" stroke-miterlimit="10"/>
<path d="M24.529 146.708H4.64203V277.719H24.529V146.708Z" fill="#6AFD5D"/>
<path opacity="0.61" d="M300.608 146.708H280.721V277.719H300.608V146.708Z" fill="black"/>
<path d="M348.57 146.708H4.64203V277.719H348.57V146.708Z" stroke="black" stroke-width="8" stroke-miterlimit="10" stroke-linecap="round" stroke-linejoin="round"/>
<path d="M280.954 485.932H266.565C262.822 485.932 259.78 482.891 259.78 479.148V10.7845C259.78 7.0413 262.822 4 266.565 4H280.954C284.697 4 287.739 7.0413 287.739 10.7845V479.031C287.739 482.891 284.697 485.932 280.954 485.932Z" fill="#B7C8CE"/>
<path d="M280.954 485.932H266.565C262.822 485.932 259.78 482.891 259.78 479.148V10.7845C259.78 7.0413 262.822 4 266.565 4H280.954C284.697 4 287.739 7.0413 287.739 10.7845V479.031C287.739 482.891 284.697 485.932 280.954 485.932Z" stroke="black" stroke-width="8" stroke-miterlimit="10" stroke-linecap="round" stroke-linejoin="round"/>
<path d="M76.0013 530.031L40.9066 510.497V476.574H76.0013V530.031Z" fill="#0055AD"/>
<path opacity="0.62" d="M76.0013 476.574H40.9066V489.793H76.0013V476.574Z" fill="#0055AD"/>
<path d="M76.0013 530.031L40.9066 510.497V476.574H76.0013V530.031Z" stroke="black" stroke-width="8" stroke-miterlimit="10" stroke-linecap="round" stroke-linejoin="round"/>
<path d="M97.5426 230.031H90.9517L100.994 200.94H108.92L118.949 230.031H112.358L105.071 207.588H104.844L97.5426 230.031ZM97.1307 218.597H112.699V223.398H97.1307V218.597ZM128.388 217.418V230.031H122.337V208.213H128.104V212.062H128.359C128.842 210.794 129.652 209.79 130.788 209.051C131.925 208.303 133.303 207.929 134.922 207.929C136.437 207.929 137.758 208.26 138.885 208.923C140.012 209.586 140.888 210.533 141.513 211.764C142.138 212.986 142.45 214.444 142.45 216.139V230.031H136.399V217.219C136.409 215.884 136.068 214.842 135.376 214.094C134.685 213.336 133.733 212.957 132.521 212.957C131.707 212.957 130.987 213.133 130.362 213.483C129.747 213.833 129.264 214.345 128.913 215.017C128.572 215.68 128.397 216.48 128.388 217.418ZM157.077 230.457C154.871 230.457 152.963 229.989 151.353 229.051C149.753 228.104 148.517 226.788 147.646 225.102C146.774 223.407 146.339 221.442 146.339 219.207C146.339 216.954 146.774 214.984 147.646 213.298C148.517 211.603 149.753 210.287 151.353 209.349C152.963 208.402 154.871 207.929 157.077 207.929C159.284 207.929 161.187 208.402 162.788 209.349C164.397 210.287 165.638 211.603 166.509 213.298C167.38 214.984 167.816 216.954 167.816 219.207C167.816 221.442 167.38 223.407 166.509 225.102C165.638 226.788 164.397 228.104 162.788 229.051C161.187 229.989 159.284 230.457 157.077 230.457ZM157.106 225.77C158.11 225.77 158.948 225.486 159.62 224.918C160.292 224.34 160.799 223.554 161.14 222.56C161.49 221.565 161.665 220.434 161.665 219.165C161.665 217.896 161.49 216.764 161.14 215.77C160.799 214.776 160.292 213.99 159.62 213.412C158.948 212.834 158.11 212.545 157.106 212.545C156.093 212.545 155.24 212.834 154.549 213.412C153.867 213.99 153.351 214.776 153.001 215.77C152.66 216.764 152.489 217.896 152.489 219.165C152.489 220.434 152.66 221.565 153.001 222.56C153.351 223.554 153.867 224.34 154.549 224.918C155.24 225.486 156.093 225.77 157.106 225.77ZM183.356 208.213V212.759H170.217V208.213H183.356ZM173.2 202.986H179.251V223.327C179.251 223.885 179.336 224.321 179.506 224.634C179.677 224.937 179.914 225.15 180.217 225.273C180.529 225.396 180.889 225.457 181.296 225.457C181.58 225.457 181.864 225.434 182.148 225.386C182.433 225.33 182.65 225.287 182.802 225.259L183.754 229.761C183.451 229.856 183.024 229.965 182.475 230.088C181.926 230.221 181.258 230.301 180.472 230.33C179.014 230.386 177.736 230.192 176.637 229.747C175.548 229.302 174.701 228.611 174.094 227.673C173.488 226.736 173.19 225.552 173.2 224.122V202.986ZM192.425 230.031H185.835L195.877 200.94H203.803L213.832 230.031H207.241L199.954 207.588H199.727L192.425 230.031ZM192.013 218.597H207.582V223.398H192.013V218.597ZM217.337 230.031V208.213H223.388V230.031H217.337ZM218.203 205.401L221.214 198.938H226.811L222.479 205.401H218.203Z" fill="black"/>
<path d="M97.5426 230.031V231.031C97.9757 231.031 98.3596 230.752 98.4936 230.341L97.5426 230.031ZM90.9517 230.031L90.0064 229.705C89.9009 230.011 89.9497 230.348 90.1374 230.612C90.325 230.875 90.6284 231.031 90.9517 231.031V230.031ZM100.994 200.94V199.94C100.568 199.94 100.188 200.211 100.049 200.614L100.994 200.94ZM108.92 200.94L109.866 200.614C109.727 200.211 109.347 199.94 108.92 199.94V200.94ZM118.949 230.031V231.031C119.272 231.031 119.575 230.875 119.763 230.612C119.951 230.349 120 230.011 119.894 229.705L118.949 230.031ZM112.358 230.031L111.407 230.34C111.541 230.752 111.925 231.031 112.358 231.031V230.031ZM105.071 207.588L106.022 207.279C105.888 206.867 105.504 206.588 105.071 206.588V207.588ZM104.844 207.588V206.588C104.411 206.588 104.027 206.867 103.893 207.279L104.844 207.588ZM97.1307 218.597V217.597C96.5784 217.597 96.1307 218.044 96.1307 218.597H97.1307ZM112.699 218.597H113.699C113.699 218.044 113.251 217.597 112.699 217.597V218.597ZM112.699 223.398V224.398C113.251 224.398 113.699 223.95 113.699 223.398H112.699ZM97.1307 223.398H96.1307C96.1307 223.95 96.5784 224.398 97.1307 224.398V223.398ZM97.5426 229.031H90.9517V231.031H97.5426V229.031ZM91.897 230.358L101.94 201.267L100.049 200.614L90.0064 229.705L91.897 230.358ZM100.994 201.94H108.92V199.94H100.994V201.94ZM107.975 201.266L118.003 230.357L119.894 229.705L109.866 200.614L107.975 201.266ZM118.949 229.031H112.358V231.031H118.949V229.031ZM113.309 229.722L106.022 207.279L104.12 207.897L111.407 230.34L113.309 229.722ZM105.071 206.588H104.844V208.588H105.071V206.588ZM103.893 207.279L96.5917 229.722L98.4936 230.341L105.795 207.897L103.893 207.279ZM97.1307 219.597H112.699V217.597H97.1307V219.597ZM111.699 218.597V223.398H113.699V218.597H111.699ZM112.699 222.398H97.1307V224.398H112.699V222.398ZM98.1307 223.398V218.597H96.1307V223.398H98.1307ZM128.388 217.418L127.388 217.408V217.418H128.388ZM128.388 230.031V231.031C128.94 231.031 129.388 230.584 129.388 230.031H128.388ZM122.337 230.031H121.337C121.337 230.584 121.784 231.031 122.337 231.031V230.031ZM122.337 208.213V207.213C121.784 207.213 121.337 207.661 121.337 208.213H122.337ZM128.104 208.213H129.104C129.104 207.661 128.656 207.213 128.104 207.213V208.213ZM128.104 212.062H127.104C127.104 212.615 127.551 213.062 128.104 213.062V212.062ZM128.359 212.062V213.062C128.774 213.062 129.146 212.806 129.294 212.418L128.359 212.062ZM130.788 209.051L131.333 209.89L131.338 209.886L130.788 209.051ZM138.885 208.923L139.392 208.061L138.885 208.923ZM141.513 211.764L140.621 212.217L140.623 212.22L141.513 211.764ZM142.45 230.031V231.031C143.003 231.031 143.45 230.584 143.45 230.031H142.45ZM136.399 230.031H135.399C135.399 230.584 135.847 231.031 136.399 231.031V230.031ZM136.399 217.219L135.399 217.212V217.219H136.399ZM135.376 214.094L134.638 214.768L134.642 214.772L135.376 214.094ZM130.362 213.483L129.873 212.611L129.868 212.614L130.362 213.483ZM128.913 215.017L128.027 214.555L128.024 214.56L128.913 215.017ZM127.388 217.418V230.031H129.388V217.418H127.388ZM128.388 229.031H122.337V231.031H128.388V229.031ZM123.337 230.031V208.213H121.337V230.031H123.337ZM122.337 209.213H128.104V207.213H122.337V209.213ZM127.104 208.213V212.062H129.104V208.213H127.104ZM128.104 213.062H128.359V211.062H128.104V213.062ZM129.294 212.418C129.702 211.347 130.375 210.512 131.333 209.89L130.243 208.213C128.929 209.067 127.983 210.24 127.425 211.707L129.294 212.418ZM131.338 209.886C132.282 209.265 133.46 208.929 134.922 208.929V206.929C133.145 206.929 131.567 207.341 130.238 208.216L131.338 209.886ZM134.922 208.929C136.287 208.929 137.428 209.226 138.378 209.785L139.392 208.061C138.088 207.295 136.587 206.929 134.922 206.929V208.929ZM138.378 209.785C139.331 210.346 140.078 211.146 140.621 212.217L142.404 211.312C141.698 209.92 140.693 208.827 139.392 208.061L138.378 209.785ZM140.623 212.22C141.16 213.271 141.45 214.566 141.45 216.139H143.45C143.45 214.322 143.115 212.701 142.403 211.309L140.623 212.22ZM141.45 216.139V230.031H143.45V216.139H141.45ZM142.45 229.031H136.399V231.031H142.45V229.031ZM137.399 230.031V217.219H135.399V230.031H137.399ZM137.399 217.226C137.41 215.718 137.023 214.402 136.111 213.415L134.642 214.772C135.113 215.282 135.407 216.049 135.399 217.212L137.399 217.226ZM136.115 213.42C135.2 212.417 133.959 211.957 132.521 211.957V213.957C133.508 213.957 134.171 214.256 134.638 214.768L136.115 213.42ZM132.521 211.957C131.559 211.957 130.667 212.166 129.873 212.611L130.851 214.355C131.307 214.099 131.854 213.957 132.521 213.957V211.957ZM129.868 212.614C129.073 213.066 128.459 213.725 128.027 214.555L129.8 215.479C130.068 214.965 130.42 214.601 130.857 214.352L129.868 212.614ZM128.024 214.56C127.596 215.392 127.398 216.353 127.388 217.408L129.388 217.428C129.396 216.607 129.549 215.968 129.803 215.474L128.024 214.56ZM151.353 229.051L150.844 229.912L150.85 229.915L151.353 229.051ZM147.646 225.102L146.756 225.559L146.757 225.561L147.646 225.102ZM147.646 213.298L148.534 213.757L148.535 213.755L147.646 213.298ZM151.353 209.349L151.858 210.212L151.86 210.211L151.353 209.349ZM162.788 209.349L162.278 210.21L162.284 210.214L162.788 209.349ZM166.509 213.298L165.62 213.755L165.621 213.757L166.509 213.298ZM166.509 225.102L167.398 225.561L167.399 225.559L166.509 225.102ZM162.788 229.051L163.293 229.914L163.295 229.913L162.788 229.051ZM159.62 224.918L160.266 225.681L160.272 225.676L159.62 224.918ZM161.14 222.56L160.197 222.227L160.194 222.235L161.14 222.56ZM161.14 215.77L160.194 216.094L160.197 216.102L161.14 215.77ZM154.549 213.412L153.908 212.645L153.903 212.649L154.549 213.412ZM153.001 215.77L152.058 215.438L152.055 215.446L153.001 215.77ZM153.001 222.56L152.055 222.884L152.058 222.892L153.001 222.56ZM154.549 224.918L153.903 225.681C153.906 225.684 153.91 225.687 153.914 225.69L154.549 224.918ZM157.077 229.457C155.015 229.457 153.287 229.02 151.856 228.187L150.85 229.915C152.638 230.957 154.727 231.457 157.077 231.457V229.457ZM151.862 228.191C150.427 227.341 149.321 226.166 148.534 224.643L146.757 225.561C147.713 227.41 149.078 228.867 150.844 229.912L151.862 228.191ZM148.535 224.645C147.748 223.114 147.339 221.311 147.339 219.207H145.339C145.339 221.574 145.801 223.7 146.756 225.559L148.535 224.645ZM147.339 219.207C147.339 217.084 147.749 215.277 148.534 213.757L146.757 212.839C145.8 214.691 145.339 216.824 145.339 219.207H147.339ZM148.535 213.755C149.322 212.224 150.427 211.051 151.858 210.212L150.848 208.487C149.079 209.523 147.712 210.982 146.756 212.841L148.535 213.755ZM151.86 210.211C153.29 209.37 155.017 208.929 157.077 208.929V206.929C154.725 206.929 152.635 207.435 150.846 208.487L151.86 210.211ZM157.077 208.929C159.138 208.929 160.859 209.37 162.278 210.21L163.297 208.489C161.516 207.435 159.429 206.929 157.077 206.929V208.929ZM162.284 210.214C163.725 211.053 164.834 212.226 165.62 213.755L167.399 212.841C166.442 210.98 165.07 209.521 163.291 208.485L162.284 210.214ZM165.621 213.757C166.406 215.277 166.816 217.084 166.816 219.207H168.816C168.816 216.824 168.355 214.691 167.398 212.839L165.621 213.757ZM166.816 219.207C166.816 221.311 166.407 223.114 165.62 224.645L167.399 225.559C168.354 223.7 168.816 221.574 168.816 219.207H166.816ZM165.621 224.643C164.835 226.164 163.725 227.339 162.281 228.189L163.295 229.913C165.07 228.869 166.441 227.412 167.398 225.561L165.621 224.643ZM162.282 228.188C160.862 229.02 159.14 229.457 157.077 229.457V231.457C159.428 231.457 161.513 230.957 163.293 229.914L162.282 228.188ZM157.106 226.77C158.311 226.77 159.387 226.423 160.265 225.681L158.975 224.154C158.508 224.548 157.908 224.77 157.106 224.77V226.77ZM160.272 225.676C161.102 224.963 161.698 224.015 162.086 222.884L160.194 222.235C159.9 223.093 159.483 223.717 158.968 224.159L160.272 225.676ZM162.083 222.892C162.478 221.772 162.665 220.525 162.665 219.165H160.665C160.665 220.343 160.503 221.359 160.197 222.227L162.083 222.892ZM162.665 219.165C162.665 217.805 162.478 216.558 162.083 215.438L160.197 216.102C160.503 216.971 160.665 217.987 160.665 219.165H162.665ZM162.086 215.446C161.698 214.314 161.102 213.367 160.272 212.653L158.968 214.17C159.483 214.612 159.9 215.237 160.194 216.094L162.086 215.446ZM160.272 212.653C159.394 211.899 158.315 211.545 157.106 211.545V213.545C157.904 213.545 158.501 213.769 158.968 214.17L160.272 212.653ZM157.106 211.545C155.889 211.545 154.801 211.898 153.908 212.645L155.19 214.179C155.679 213.771 156.296 213.545 157.106 213.545V211.545ZM153.903 212.649C153.063 213.36 152.456 214.306 152.058 215.438L153.944 216.102C154.246 215.245 154.672 214.619 155.195 214.175L153.903 212.649ZM152.055 215.446C151.672 216.563 151.489 217.808 151.489 219.165H153.489C153.489 217.984 153.648 216.965 153.947 216.094L152.055 215.446ZM151.489 219.165C151.489 220.522 151.672 221.766 152.055 222.884L153.947 222.235C153.648 221.364 153.489 220.346 153.489 219.165H151.489ZM152.058 222.892C152.456 224.023 153.063 224.969 153.903 225.681L155.195 224.155C154.672 223.711 154.246 223.085 153.944 222.227L152.058 222.892ZM153.914 225.69C154.808 226.425 155.893 226.77 157.106 226.77V224.77C156.292 224.77 155.673 224.547 155.184 224.145L153.914 225.69ZM183.356 208.213H184.356C184.356 207.661 183.908 207.213 183.356 207.213V208.213ZM183.356 212.759V213.759C183.908 213.759 184.356 213.311 184.356 212.759H183.356ZM170.217 212.759H169.217C169.217 213.311 169.664 213.759 170.217 213.759V212.759ZM170.217 208.213V207.213C169.664 207.213 169.217 207.661 169.217 208.213H170.217ZM173.2 202.986V201.986C172.647 201.986 172.2 202.434 172.2 202.986H173.2ZM179.251 202.986H180.251C180.251 202.434 179.803 201.986 179.251 201.986V202.986ZM179.506 224.634L178.628 225.112L178.635 225.124L179.506 224.634ZM180.217 225.273L179.84 226.199L179.85 226.203L180.217 225.273ZM182.148 225.386L182.313 226.373C182.323 226.371 182.334 226.369 182.345 226.367L182.148 225.386ZM182.802 225.259L183.78 225.052C183.668 224.52 183.152 224.176 182.618 224.276L182.802 225.259ZM183.754 229.761L184.052 230.716C184.544 230.562 184.839 230.059 184.732 229.555L183.754 229.761ZM182.475 230.088L182.256 229.112C182.251 229.113 182.246 229.115 182.241 229.116L182.475 230.088ZM180.472 230.33L180.436 229.33L180.433 229.33L180.472 230.33ZM176.637 229.747L176.259 230.673L176.262 230.674L176.637 229.747ZM174.094 227.673L174.934 227.13L174.094 227.673ZM173.2 224.122L174.2 224.129V224.122H173.2ZM182.356 208.213V212.759H184.356V208.213H182.356ZM183.356 211.759H170.217V213.759H183.356V211.759ZM171.217 212.759V208.213H169.217V212.759H171.217ZM170.217 209.213H183.356V207.213H170.217V209.213ZM173.2 203.986H179.251V201.986H173.2V203.986ZM178.251 202.986V223.327H180.251V202.986H178.251ZM178.251 223.327C178.251 223.966 178.345 224.592 178.628 225.112L180.384 224.155C180.327 224.05 180.251 223.804 180.251 223.327H178.251ZM178.635 225.124C178.909 225.611 179.314 225.985 179.84 226.199L180.593 224.346C180.513 224.314 180.445 224.262 180.378 224.143L178.635 225.124ZM179.85 226.203C180.301 226.381 180.789 226.457 181.296 226.457V224.457C180.989 224.457 180.757 224.411 180.583 224.342L179.85 226.203ZM181.296 226.457C181.636 226.457 181.975 226.429 182.313 226.373L181.984 224.4C181.754 224.438 181.524 224.457 181.296 224.457V226.457ZM182.345 226.367C182.627 226.31 182.841 226.269 182.986 226.241L182.618 224.276C182.46 224.305 182.238 224.349 181.952 224.406L182.345 226.367ZM181.823 225.465L182.775 229.968L184.732 229.555L183.78 225.052L181.823 225.465ZM183.455 228.807C183.191 228.889 182.796 228.991 182.256 229.112L182.694 231.064C183.253 230.939 183.71 230.823 184.052 230.716L183.455 228.807ZM182.241 229.116C181.776 229.228 181.179 229.303 180.436 229.33L180.508 231.329C181.337 231.299 182.076 231.213 182.71 231.06L182.241 229.116ZM180.433 229.33C179.085 229.383 177.953 229.201 177.013 228.82L176.262 230.674C177.518 231.183 178.943 231.39 180.511 231.329L180.433 229.33ZM177.015 228.821C176.105 228.449 175.423 227.887 174.934 227.13L173.255 228.216C173.978 229.335 174.991 230.155 176.259 230.673L177.015 228.821ZM174.934 227.13C174.46 226.397 174.191 225.418 174.2 224.129L172.2 224.116C172.189 225.686 172.517 227.075 173.255 228.216L174.934 227.13ZM174.2 224.122V202.986H172.2V224.122H174.2ZM192.425 230.031V231.031C192.859 231.031 193.242 230.752 193.376 230.341L192.425 230.031ZM185.835 230.031L184.889 229.705C184.784 230.011 184.833 230.348 185.02 230.612C185.208 230.875 185.511 231.031 185.835 231.031V230.031ZM195.877 200.94V199.94C195.451 199.94 195.071 200.211 194.932 200.614L195.877 200.94ZM203.803 200.94L204.749 200.614C204.61 200.211 204.23 199.94 203.803 199.94V200.94ZM213.832 230.031V231.031C214.155 231.031 214.458 230.875 214.646 230.612C214.834 230.349 214.882 230.011 214.777 229.705L213.832 230.031ZM207.241 230.031L206.29 230.34C206.423 230.752 206.807 231.031 207.241 231.031V230.031ZM199.954 207.588L200.905 207.279C200.771 206.867 200.387 206.588 199.954 206.588V207.588ZM199.727 207.588V206.588C199.293 206.588 198.91 206.867 198.776 207.279L199.727 207.588ZM192.013 218.597V217.597C191.461 217.597 191.013 218.044 191.013 218.597H192.013ZM207.582 218.597H208.582C208.582 218.044 208.134 217.597 207.582 217.597V218.597ZM207.582 223.398V224.398C208.134 224.398 208.582 223.95 208.582 223.398H207.582ZM192.013 223.398H191.013C191.013 223.95 191.461 224.398 192.013 224.398V223.398ZM192.425 229.031H185.835V231.031H192.425V229.031ZM186.78 230.358L196.822 201.267L194.932 200.614L184.889 229.705L186.78 230.358ZM195.877 201.94H203.803V199.94H195.877V201.94ZM202.858 201.266L212.886 230.357L214.777 229.705L204.749 200.614L202.858 201.266ZM213.832 229.031H207.241V231.031H213.832V229.031ZM208.192 229.722L200.905 207.279L199.003 207.897L206.29 230.34L208.192 229.722ZM199.954 206.588H199.727V208.588H199.954V206.588ZM198.776 207.279L191.474 229.722L193.376 230.341L200.678 207.897L198.776 207.279ZM192.013 219.597H207.582V217.597H192.013V219.597ZM206.582 218.597V223.398H208.582V218.597H206.582ZM207.582 222.398H192.013V224.398H207.582V222.398ZM193.013 223.398V218.597H191.013V223.398H193.013ZM217.337 230.031H216.337C216.337 230.584 216.784 231.031 217.337 231.031V230.031ZM217.337 208.213V207.213C216.784 207.213 216.337 207.661 216.337 208.213H217.337ZM223.388 208.213H224.388C224.388 207.661 223.94 207.213 223.388 207.213V208.213ZM223.388 230.031V231.031C223.94 231.031 224.388 230.584 224.388 230.031H223.388ZM218.203 205.401L217.297 204.978C217.152 205.288 217.176 205.65 217.36 205.938C217.543 206.226 217.861 206.401 218.203 206.401V205.401ZM221.214 198.938V197.938C220.826 197.938 220.472 198.163 220.308 198.515L221.214 198.938ZM226.811 198.938L227.642 199.494C227.847 199.188 227.867 198.793 227.693 198.467C227.52 198.141 227.18 197.938 226.811 197.938V198.938ZM222.479 205.401V206.401C222.812 206.401 223.124 206.234 223.309 205.957L222.479 205.401ZM218.337 230.031V208.213H216.337V230.031H218.337ZM217.337 209.213H223.388V207.213H217.337V209.213ZM222.388 208.213V230.031H224.388V208.213H222.388ZM223.388 229.031H217.337V231.031H223.388V229.031ZM219.11 205.823L222.121 199.36L220.308 198.515L217.297 204.978L219.11 205.823ZM221.214 199.938H226.811V197.938H221.214V199.938ZM225.98 198.381L221.648 204.844L223.309 205.957L227.642 199.494L225.98 198.381ZM222.479 204.401H218.203V206.401H222.479V204.401Z" fill="white"/>
</svg>
