<svg width="65" height="600" viewBox="0 0 40 500" fill="none" xmlns="http://www.w3.org/2000/svg">
<path d="M16.3997 283.811C29.0338 283.811 41.7848 283.811 54.4189 283.811C46.5811 272.114 46.5811 256.907 54.4189 244.04C41.7848 244.04 29.0338 244.04 16.3997 244.04C24.2375 256.907 24.2375 272.114 16.3997 283.811Z" fill="black"/>
<path d="M16.868 67.4094H54.3024V244.04H16.868V67.4094Z" fill="#526066"/>
<path d="M16.868 67.4094H54.3024V244.04H16.868V67.4094Z" fill="#526066"/>
<path d="M16.868 67.4094H54.3024V244.04H16.868V67.4094Z" stroke="black" stroke-width="8" stroke-miterlimit="10" stroke-linecap="round" stroke-linejoin="round"/>
<path d="M16.3998 363.353C29.0339 363.353 41.785 363.353 54.4191 363.353C56.8758 337.619 56.8758 310.715 54.4191 283.811C41.785 283.811 29.0339 283.811 16.3998 283.811C13.9432 310.715 13.9432 337.619 16.3998 363.353Z" fill="#42708A"/>
<path d="M16.3998 363.353C29.0339 363.353 41.785 363.353 54.4191 363.353C56.8758 337.619 56.8758 310.715 54.4191 283.811C41.785 283.811 29.0339 283.811 16.3998 283.811C13.9432 310.715 13.9432 337.619 16.3998 363.353Z" fill="#526066"/>
<path opacity="0.3" d="M16.4006 283.811C19.4421 283.811 22.4837 283.811 25.5252 283.811C23.0686 310.715 23.0686 337.619 25.5252 363.353C22.4837 363.353 19.4421 363.353 16.4006 363.353C13.944 337.619 13.944 310.715 16.4006 283.811Z" fill="#526066"/>
<path opacity="0.73" d="M40.9663 362.184C42.838 362.184 44.5928 362.184 46.4645 362.184C48.9211 336.8 48.9211 310.364 46.5815 283.811C44.7097 283.811 42.838 283.811 40.9663 283.811C43.306 310.364 43.306 336.8 40.9663 362.184Z" fill="#CCDDE5"/>
<path d="M16.3998 363.353C29.0339 363.353 41.785 363.353 54.4191 363.353C56.8758 337.619 56.8758 310.715 54.4191 283.811C41.785 283.811 29.0339 283.811 16.3998 283.811C13.9432 310.715 13.9432 337.619 16.3998 363.353Z" stroke="black" stroke-width="8" stroke-miterlimit="10" stroke-linecap="round" stroke-linejoin="round"/>
<path d="M14.5284 311.885H56.642V336.45H14.5284V311.885Z" stroke="black" stroke-width="8" stroke-miterlimit="10" stroke-linecap="round" stroke-linejoin="round"/>
<path d="M16.3997 283.811C29.0338 283.811 41.7848 283.811 54.4189 283.811C46.5811 272.114 46.5811 256.907 54.4189 244.04C41.7848 244.04 29.0338 244.04 16.3997 244.04C24.2375 256.907 24.2375 272.114 16.3997 283.811Z" stroke="black" stroke-width="8" stroke-miterlimit="10" stroke-linecap="round" stroke-linejoin="round"/>
<path d="M30.5545 418.331C24.2375 399.615 16.6336 382.069 16.3997 363.353H54.4189C54.185 382.069 46.5811 399.615 40.2641 418.331H30.5545Z" fill="#CCDDE5"/>
<path d="M16.3997 363.353C16.3997 363.704 16.3997 364.172 16.3997 364.523H41.4339C41.3169 382.888 38.0414 400.434 34.181 418.331H40.2641C46.5811 399.615 54.185 382.069 54.4189 363.353H16.3997Z" fill="white"/>
<path d="M30.5545 418.331C24.2375 399.615 16.6336 382.069 16.3997 363.353H54.4189C54.185 382.069 46.5811 399.615 40.2641 418.331H30.5545Z" stroke="black" stroke-width="8" stroke-miterlimit="10" stroke-linecap="round" stroke-linejoin="round"/>
<path d="M30.9059 418.331H40.2645V425.35H30.9059V418.331Z" stroke="black" stroke-width="8" stroke-miterlimit="10" stroke-linecap="round" stroke-linejoin="round"/>
<path d="M35.5852 426.519V441.726" stroke="black" stroke-width="8" stroke-miterlimit="10" stroke-linecap="round" stroke-linejoin="round"/>
<path d="M21.5473 41.6755H49.623V67.4098H21.5473V41.6755Z" stroke="black" stroke-width="8" stroke-miterlimit="10" stroke-linecap="round" stroke-linejoin="round"/>
<path d="M21.5473 41.6755H49.623V67.4098H21.5473V41.6755Z" fill="black"/>
<path d="M25.0568 41.6753H46.1136V11.613C46.1136 7.5189 42.3702 4.24365 38.2758 4.24365H32.4267C28.3323 4.24365 25.0568 7.5189 25.0568 11.613V41.6753Z" fill="#CCDDE5"/>
<path d="M25.0568 41.6753H46.1136V11.613C46.1136 7.5189 42.3702 4.24365 38.2758 4.24365H32.4267C28.3323 4.24365 25.0568 7.5189 25.0568 11.613V41.6753Z" stroke="black" stroke-width="8" stroke-miterlimit="10" stroke-linecap="round" stroke-linejoin="round"/>
<path d="M3.99998 83.7859H40.2645V104.841H3.99998V83.7859Z" fill="#CCDDE5"/>
<path d="M3.99998 83.7859H40.2645V104.841H3.99998V83.7859Z" stroke="black" stroke-width="8" stroke-miterlimit="10" stroke-linecap="round" stroke-linejoin="round"/>
<path d="M3.99992 176.546L16.868 159.585V104.841H3.99992V176.546Z" fill="#CCDDE5"/>
<path d="M3.99992 176.546L16.868 159.585V104.841H3.99992V176.546Z" stroke="black" stroke-width="8" stroke-miterlimit="10" stroke-linecap="round" stroke-linejoin="round"/>
</svg>
